<?xml version="1.0" encoding="UTF-8" standalone="no"?>
<!DOCTYPE svg PUBLIC "-//W3C//DTD SVG 1.1//EN" "http://www.w3.org/Graphics/SVG/1.1/DTD/svg11.dtd">
<svg width="100%" height="100%" viewBox="0 0 78 23" version="1.1" xmlns="http://www.w3.org/2000/svg" xmlns:xlink="http://www.w3.org/1999/xlink" xml:space="preserve" xmlns:serif="http://www.serif.com/" style="fill-rule:evenodd;clip-rule:evenodd;stroke-linecap:square;stroke-linejoin:round;stroke-miterlimit:1.5;">
    <g transform="matrix(1,0,0,1,-301.943,-270.137)">
        <g transform="matrix(0.748079,0,0,0.748079,67.6217,80.7579)">
            <ellipse cx="327.601" cy="268.279" rx="13.368" ry="13.472" style="fill:rgb(213,213,213);stroke:rgb(59,59,59);stroke-width:2.01px;"/>
        </g>
        <g transform="matrix(0.748079,0,0,0.748079,123.721,80.2705)">
            <ellipse cx="327.601" cy="268.279" rx="13.368" ry="13.472" style="fill:rgb(213,213,213);stroke:rgb(59,59,59);stroke-width:2.01px;"/>
        </g>
        <g transform="matrix(0.401016,0,0,0.274792,175.612,160.183)">
            <rect x="477.156" y="423.889" width="17.096" height="16.85" style="fill:white;stroke:rgb(59,59,59);stroke-width:2.15px;stroke-linecap:round;"/>
        </g>
        <g transform="matrix(0.584942,0,0,0.400825,28.5508,107.96)">
            <rect x="477.156" y="423.889" width="17.096" height="16.85" style="fill:rgb(204,103,103);stroke:rgb(59,59,59);stroke-width:1.7px;stroke-linecap:round;"/>
        </g>
        <g transform="matrix(0.401016,0,0,0.274792,174.568,159.649)">
            <rect x="475.787" y="431.374" width="17.199" height="17.172" style="fill:white;stroke:rgb(59,59,59);stroke-width:2.15px;stroke-linecap:round;"/>
        </g>
        <g transform="matrix(0.401016,0,0,0.274792,172.468,163.316)">
            <rect x="477.156" y="423.889" width="17.096" height="16.85" style="fill:rgb(204,103,103);stroke:rgb(59,59,59);stroke-width:2.15px;stroke-linecap:round;"/>
        </g>
        <g transform="matrix(1.29122,0,0,1.28261,-267.346,31.2391)">
            <ellipse cx="471.095" cy="194.906" rx="6.265" ry="6.198" style="fill:white;stroke:rgb(59,59,59);stroke-width:1.94px;stroke-linecap:round;"/>
        </g>
        <g transform="matrix(1,0,0,1,-129.112,86.1703)">
            <ellipse cx="470.306" cy="194.955" rx="3.718" ry="3.619" style="fill:rgb(59,59,59);stroke:rgb(213,213,213);stroke-width:2.5px;stroke-linecap:round;"/>
        </g>
        <g transform="matrix(0.261089,5.98325e-05,5.98325e-05,1,238.639,-0.0193235)">
            <path d="M322.983,281.159L359.164,281.156" style="fill:none;stroke:rgb(59,59,59);stroke-width:2.04px;"/>
        </g>
        <g transform="matrix(0.261089,5.98325e-05,5.98325e-05,1,264.91,0.123255)">
            <path d="M322.983,281.159L359.164,281.156" style="fill:none;stroke:rgb(59,59,59);stroke-width:2.04px;"/>
        </g>
    </g>
</svg>
